<svg xmlns="http://www.w3.org/2000/svg" width="860" height="630" viewBox="0 0 860 630" role="img" aria-labelledby="t d" xml:space="preserve">
  <title id="t">rafael@mancan — neofetch</title>
  <desc id="d">Rafael Mançan, Full Stack Engineer building NoPing. PHP 8, Laravel, TypeScript, NestJS, Next.js, MySQL, Redis. AI toolkit: Claude Code, MCP servers, multi-agent orchestration, OpenAI SDK, Ollama. Remote since 2009.</desc>
  <style>
    text { font-family: 'JetBrains Mono', ui-monospace, SFMono-Regular, Menlo, Consolas, 'Liberation Mono', monospace; font-size: 14px; fill: #1f2328; white-space: pre; }
    .k { fill: #1a7f37; font-weight: 700; }
    .m { fill: #59636e; }
    .accent { fill: #1a7f37; }
    .cursor { fill: #1a7f37; animation: blink 1.1s step-end infinite; }
    @keyframes blink { 50% { opacity: 0; } }
  </style>
  <defs>
    <pattern id="grid" width="24" height="24" patternUnits="userSpaceOnUse">
      <path d="M24 0H0V24" fill="none" stroke="#f3f4f6" stroke-width="1"/>
    </pattern>
    <clipPath id="frame"><rect width="860" height="630" rx="12"/></clipPath>
  </defs>
  <g clip-path="url(#frame)">
    <rect width="860" height="630" fill="#ffffff"/>
    <rect width="860" height="630" fill="url(#grid)"/>
    <rect width="860" height="36" fill="#f6f8fa"/>
    <line x1="0" y1="36" x2="860" y2="36" stroke="#d0d7de"/>
  </g>
  <rect x="0.5" y="0.5" width="859" height="629" rx="12" fill="none" stroke="#d0d7de"/>
  <circle cx="22" cy="18" r="6" fill="#ff5f57"/>
  <circle cx="42" cy="18" r="6" fill="#febc2e"/>
  <circle cx="62" cy="18" r="6" fill="#28c840"/>
  <text class="m" x="430" y="23" text-anchor="middle" style="font-size:12px">rafael@mancan: ~</text>

  <text x="40" y="72"><tspan class="accent">rafael@mancan</tspan><tspan class="m"> ~ $ </tspan>neofetch</text>

  <g fill="#1a7f37" opacity="0.25"><rect x="44" y="200" width="12" height="12"/><rect x="58" y="200" width="12" height="12"/><rect x="72" y="200" width="12" height="12"/><rect x="86" y="200" width="12" height="12"/><rect x="128" y="200" width="12" height="12"/><rect x="184" y="200" width="12" height="12"/><rect x="44" y="214" width="12" height="12"/><rect x="100" y="214" width="12" height="12"/><rect x="128" y="214" width="12" height="12"/><rect x="142" y="214" width="12" height="12"/><rect x="170" y="214" width="12" height="12"/><rect x="184" y="214" width="12" height="12"/><rect x="44" y="228" width="12" height="12"/><rect x="100" y="228" width="12" height="12"/><rect x="128" y="228" width="12" height="12"/><rect x="156" y="228" width="12" height="12"/><rect x="184" y="228" width="12" height="12"/><rect x="44" y="242" width="12" height="12"/><rect x="58" y="242" width="12" height="12"/><rect x="72" y="242" width="12" height="12"/><rect x="86" y="242" width="12" height="12"/><rect x="128" y="242" width="12" height="12"/><rect x="156" y="242" width="12" height="12"/><rect x="184" y="242" width="12" height="12"/><rect x="44" y="256" width="12" height="12"/><rect x="72" y="256" width="12" height="12"/><rect x="128" y="256" width="12" height="12"/><rect x="184" y="256" width="12" height="12"/><rect x="44" y="270" width="12" height="12"/><rect x="86" y="270" width="12" height="12"/><rect x="128" y="270" width="12" height="12"/><rect x="184" y="270" width="12" height="12"/><rect x="44" y="284" width="12" height="12"/><rect x="100" y="284" width="12" height="12"/><rect x="128" y="284" width="12" height="12"/><rect x="184" y="284" width="12" height="12"/></g>
  <g fill="#1a7f37"><rect x="40" y="196" width="12" height="12"/><rect x="54" y="196" width="12" height="12"/><rect x="68" y="196" width="12" height="12"/><rect x="82" y="196" width="12" height="12"/><rect x="124" y="196" width="12" height="12"/><rect x="180" y="196" width="12" height="12"/><rect x="40" y="210" width="12" height="12"/><rect x="96" y="210" width="12" height="12"/><rect x="124" y="210" width="12" height="12"/><rect x="138" y="210" width="12" height="12"/><rect x="166" y="210" width="12" height="12"/><rect x="180" y="210" width="12" height="12"/><rect x="40" y="224" width="12" height="12"/><rect x="96" y="224" width="12" height="12"/><rect x="124" y="224" width="12" height="12"/><rect x="152" y="224" width="12" height="12"/><rect x="180" y="224" width="12" height="12"/><rect x="40" y="238" width="12" height="12"/><rect x="54" y="238" width="12" height="12"/><rect x="68" y="238" width="12" height="12"/><rect x="82" y="238" width="12" height="12"/><rect x="124" y="238" width="12" height="12"/><rect x="152" y="238" width="12" height="12"/><rect x="180" y="238" width="12" height="12"/><rect x="40" y="252" width="12" height="12"/><rect x="68" y="252" width="12" height="12"/><rect x="124" y="252" width="12" height="12"/><rect x="180" y="252" width="12" height="12"/><rect x="40" y="266" width="12" height="12"/><rect x="82" y="266" width="12" height="12"/><rect x="124" y="266" width="12" height="12"/><rect x="180" y="266" width="12" height="12"/><rect x="40" y="280" width="12" height="12"/><rect x="96" y="280" width="12" height="12"/><rect x="124" y="280" width="12" height="12"/><rect x="180" y="280" width="12" height="12"/></g>
  <text class="m" x="40" y="334">// aka Poynco</text>

  <text x="300" y="104"><tspan class="accent" font-weight="700">rafael</tspan><tspan class="m">@</tspan><tspan class="accent" font-weight="700">mancan</tspan></text>
  <text class="m" x="300" y="122">─────────────</text>
  <text x="300" y="150"><tspan class="k">Role</tspan><tspan class="m">:</tspan><tspan x="400">Full Stack Engineer</tspan></text>
  <text x="300" y="172"><tspan class="k">Focus</tspan><tspan class="m">:</tspan><tspan x="400">AI-assisted engineering · agents · MCP</tspan></text>
  <text x="300" y="194"><tspan class="k">Now</tspan><tspan class="m">:</tspan><tspan x="400">Building NoPing · network optimization for gamers</tspan></text>
  <text x="300" y="216"><tspan class="k">Location</tspan><tspan class="m">:</tspan><tspan x="400">São Manuel, SP · Brazil (UTC−3)</tspan></text>
  <text x="300" y="238"><tspan class="k">Backend</tspan><tspan class="m">:</tspan><tspan x="400">PHP 8 · Laravel · TypeScript · NestJS · Node.js</tspan></text>
  <text x="300" y="260"><tspan class="k">Frontend</tspan><tspan class="m">:</tspan><tspan x="400">Next.js · React · Tailwind · shadcn/ui</tspan></text>
  <text x="300" y="282"><tspan class="k">Data</tspan><tspan class="m">:</tspan><tspan x="400">MySQL · PostgreSQL · Redis</tspan></text>
  <text x="300" y="304"><tspan class="k">Infra</tspan><tspan class="m">:</tspan><tspan x="400">Docker · CI/CD · Linux · macOS</tspan></text>
  <text x="300" y="326"><tspan class="k">Setup</tspan><tspan class="m">:</tspan><tspan x="400">Neovim (Lua) · zsh · ZMK wireless split keyboard</tspan></text>
  <text x="300" y="348"><tspan class="k">Uptime</tspan><tspan class="m">:</tspan><tspan x="400">17+ years · remote since 2009</tspan></text>
  <rect x="300" y="370" width="22" height="14" rx="2" fill="#0a0a0a" stroke="#d0d7de"/>
  <rect x="326" y="370" width="22" height="14" rx="2" fill="#ff5f57" stroke="#d0d7de"/>
  <rect x="352" y="370" width="22" height="14" rx="2" fill="#00ff41" stroke="#d0d7de"/>
  <rect x="378" y="370" width="22" height="14" rx="2" fill="#febc2e" stroke="#d0d7de"/>
  <rect x="404" y="370" width="22" height="14" rx="2" fill="#3b82f6" stroke="#d0d7de"/>
  <rect x="430" y="370" width="22" height="14" rx="2" fill="#a855f7" stroke="#d0d7de"/>
  <rect x="456" y="370" width="22" height="14" rx="2" fill="#22d3ee" stroke="#d0d7de"/>
  <rect x="482" y="370" width="22" height="14" rx="2" fill="#e5e5e5" stroke="#d0d7de"/>

  <text x="40" y="424"><tspan class="accent">rafael@mancan</tspan><tspan class="m"> ~ $ </tspan>tree ~/ai -L 1</text>
  <text class="accent" x="40" y="450" font-weight="700">~/ai</text>
  <text x="40" y="472"><tspan class="m">├── </tspan><tspan class="k">claude-code</tspan><tspan x="200">skills · hooks · plugins · subagents</tspan></text>
  <text x="40" y="494"><tspan class="m">├── </tspan><tspan class="k">mcp</tspan><tspan x="200">building MCP servers in TypeScript</tspan></text>
  <text x="40" y="516"><tspan class="m">├── </tspan><tspan class="k">agents</tspan><tspan x="200">multi-agent orchestration · scheduled agent routines</tspan></text>
  <text x="40" y="538"><tspan class="m">├── </tspan><tspan class="k">models</tspan><tspan x="200">Claude · OpenAI SDK · Ollama for local models</tspan></text>
  <text x="40" y="560"><tspan class="m">└── </tspan><tspan class="k">workflow</tspan><tspan x="200">spec → plan → subagent execution · TDD · Playwright checks</tspan></text>

  <text x="40" y="604"><tspan class="accent">rafael@mancan</tspan><tspan class="m"> ~ $ </tspan></text>
  <rect class="cursor" x="192" y="591" width="9" height="17"/>
</svg>
